<?xml version="1.0" encoding="utf-8"?>
<!DOCTYPE svg PUBLIC "-//W3C//DTD SVG 1.1//EN" "http://www.w3.org/Graphics/SVG/1.1/DTD/svg11.dtd">
<svg version="1.1" xmlns="http://www.w3.org/2000/svg" xmlns:xlink="http://www.w3.org/1999/xlink" x="0px" y="0px"
	 width="512px" height="512px" viewBox="0 0 512 512" style="enable-background:new 0 0 512 512;" xml:space="preserve">
    <title>TitleHere</title>
    <desc>DescriptionHere</desc>
<g id="icon-cluster">
    <path id="server-3-icon" d="M462,200.312H50v103.264h412V200.312z M77.401,274.591l18.116-45.295h21.886l-18.117,45.295H77.401z
	 M112.874,274.591l18.116-45.295h21.884l-18.116,45.295H112.874z M148.345,274.591l18.116-45.295h21.884l-18.117,45.295H148.345z
	 M183.817,274.591l18.115-45.295h21.883l-18.114,45.295H183.817z M241.172,274.591h-21.884l18.117-45.295h21.886L241.172,274.591z
	 M413.084,267.069c-8.352,0-15.125-6.773-15.125-15.127s6.773-15.125,15.125-15.125c8.356,0,15.129,6.771,15.129,15.125
	S421.44,267.069,413.084,267.069z M439.287,173.138H73.597l72.119-95.152h220.567L439.287,173.138z M462,330.749H50v103.266h412
	V330.749z M77.401,405.028l18.116-45.293h21.886l-18.117,45.293H77.401z M112.874,405.028l18.116-45.293h21.884l-18.116,45.293
	H112.874z M148.345,405.028l18.116-45.293h21.884l-18.117,45.293H148.345z M183.817,405.028l18.115-45.293h21.883l-18.114,45.293
	H183.817z M241.172,405.028h-21.884l18.117-45.293h21.886L241.172,405.028z M413.084,397.507c-8.352,0-15.125-6.771-15.125-15.125
	c0-8.355,6.773-15.125,15.125-15.125c8.356,0,15.129,6.77,15.129,15.125C428.213,390.735,421.44,397.507,413.084,397.507z"/>
  </g>

</svg>
