<?xml version="1.0" encoding="utf-8"?>
<!DOCTYPE svg PUBLIC "-//W3C//DTD SVG 1.1//EN" "http://www.w3.org/Graphics/SVG/1.1/DTD/svg11.dtd">
<svg version="1.1" xmlns="http://www.w3.org/2000/svg" xmlns:xlink="http://www.w3.org/1999/xlink" x="0px" y="0px"
	 width="512px" height="512px" viewBox="0 0 512 512" style="enable-background:new 0 0 512 512;" xml:space="preserve">
    <title>TitleHere</title>
    <desc>DescriptionHere</desc>
  <g id="icon-cpu-2">
    <path id="cpu-5-icon" d="M393.333,393.334H118.667V118.667h274.667V393.334z M324.666,50h-34.333v34.333h34.333V50z M187.333,84.333
  h34.333V50h-34.333V84.333z M427.666,187.333v34.333H462v-34.333H427.666z M341.833,84.333H410.5
  c9.472,0,17.166,7.703,17.166,17.167v68.667H462V101.5c0-28.44-23.051-51.5-51.5-51.5h-68.667V84.333z M221.667,462v-34.333h-34.333
  V462H221.667z M427.666,238.833v34.333H462v-34.333H427.666z M462,290.334h-34.334v34.333H462V290.334z M238.833,84.333h34.333V50
  h-34.333V84.333z M273.166,427.667h-34.333V462h34.333V427.667z M170.167,427.667H101.5c-9.472,0-17.167-7.712-17.167-17.167
  v-68.666H50V410.5c0,28.433,23.051,51.5,51.5,51.5h68.667V427.667z M50,273.167h34.333v-34.333H50V273.167z M427.666,341.834V410.5
  c0,9.455-7.694,17.167-17.166,17.167h-68.667V462H410.5c28.449,0,51.5-23.067,51.5-51.5v-68.666H427.666z M50,221.667h34.333
  v-34.333H50V221.667z M324.666,427.667h-34.333V462h34.333V427.667z M84.333,170.167V101.5c0-9.463,7.695-17.167,17.167-17.167
  h68.667V50H101.5C73.051,50,50,73.06,50,101.5v68.667H84.333z M50,324.667h34.333v-34.333H50V324.667z"/>
  </g>
</svg>
