<?xml version="1.0" encoding="utf-8"?>
<!DOCTYPE svg PUBLIC "-//W3C//DTD SVG 1.1//EN" "http://www.w3.org/Graphics/SVG/1.1/DTD/svg11.dtd">
<svg version="1.1" xmlns="http://www.w3.org/2000/svg" xmlns:xlink="http://www.w3.org/1999/xlink" x="0px" y="0px"
	 width="512px" height="512px" viewBox="0 0 512 512" style="enable-background:new 0 0 512 512;" xml:space="preserve">
    <title>TitleHere</title>
    <desc>DescriptionHere</desc>
  <g id="icon-fabric"> <path d="M357,320.322V304h15c6.6,0,12-5.4,12-12v-24c0-6.6-5.4-12-12-12H261v-32.13c33.053-2.554,59.083-30.163,59.083-63.87 c0-35.392-28.691-64.083-64.083-64.083S191.917,124.608,191.917,160c0,33.708,26.03,61.317,59.083,63.87V256H140 c-6.6,0-12,5.4-12,12v24c0,6.6,5.4,12,12,12h15v16.322c-19.73,2.462-35,19.281-35,39.678c0,22.091,17.909,40,40,40 c22.091,0,40-17.909,40-40c0-20.397-15.27-37.216-35-39.678V304h86v16.322c-19.73,2.462-35,19.281-35,39.678 c0,22.091,17.909,40,40,40c22.091,0,40-17.909,40-40c0-20.397-15.27-37.216-35-39.678V304h86v16.322 c-19.73,2.462-35,19.281-35,39.678c0,22.091,17.909,40,40,40c22.091,0,40-17.909,40-40C392,339.603,376.73,322.784,357,320.322z M201.917,160c0-29.822,24.262-54.083,54.083-54.083c29.822,0,54.083,24.262,54.083,54.083c0,29.821-24.262,54.083-54.083,54.083 C226.179,214.083,201.917,189.821,201.917,160z M190,360c0,16.542-13.458,30-30,30s-30-13.458-30-30s13.458-30,30-30 S190,343.458,190,360z M286,360c0,16.542-13.458,30-30,30c-16.542,0-30-13.458-30-30s13.458-30,30-30 C272.542,330,286,343.458,286,360z M352,390c-16.542,0-30-13.458-30-30s13.458-30,30-30c16.542,0,30,13.458,30,30 S368.542,390,352,390z"/> </g>
</svg>
