<?xml version="1.0" encoding="utf-8"?>
<!DOCTYPE svg PUBLIC "-//W3C//DTD SVG 1.1//EN" "http://www.w3.org/Graphics/SVG/1.1/DTD/svg11.dtd">
<svg version="1.1" xmlns="http://www.w3.org/2000/svg" xmlns:xlink="http://www.w3.org/1999/xlink" x="0px" y="0px"
	 width="512px" height="512px" viewBox="0 0 512 512" style="enable-background:new 0 0 512 512;" xml:space="preserve">
    <title>TitleHere</title>
    <desc>DescriptionHere</desc>
  <g id="icon-vm2">
    <path id="server-icon" d="M462,270.2H50v103.3h412V270.2z M77.4,344.5l18.1-45.3h21.9l-18.1,45.3H77.4z M112.9,344.5l18.1-45.3h21.9
	l-18.1,45.3H112.9z M148.3,344.5l18.1-45.3h21.9l-18.1,45.3H148.3z M183.8,344.5l18.1-45.3h21.9l-18.1,45.3H183.8z M241.2,344.5
	h-21.9l18.1-45.3h21.9L241.2,344.5z M413.1,337c-8.4,0-15.1-6.8-15.1-15.1s6.8-15.1,15.1-15.1c8.4,0,15.1,6.8,15.1,15.1
	S421.4,337,413.1,337z M439.3,243.1H73.6l72.1-95.2h220.6L439.3,243.1z"/>
  </g>
</svg>
