<?xml version="1.0" encoding="utf-8"?>
<!DOCTYPE svg PUBLIC "-//W3C//DTD SVG 1.1//EN" "http://www.w3.org/Graphics/SVG/1.1/DTD/svg11.dtd">
<svg version="1.1" xmlns="http://www.w3.org/2000/svg" xmlns:xlink="http://www.w3.org/1999/xlink" x="0px" y="0px"
	 width="512px" height="512px" viewBox="0 0 512 512" style="enable-background:new 0 0 512 512;" xml:space="preserve">
    <title>TitleHere</title>
    <desc>DescriptionHere</desc>
  <g  id="icon-graph">
    <title>graph</title>
    <path id="51ef729db47e3c18961df1804f8aa49asitemap-15-icon" d="M317.682,346.729l-61.504-61.503l-61.711,61.712c-5.943-8.126-13.287-15.162-21.681-20.746  l68.381-68.381v-59.163c10.38,1.857,20.238,1.749,30.022-0.004v59.167l68.241,68.241  C331.019,331.612,323.649,338.621,317.682,346.729z M221.167,115c0,19.299,15.7,35,35,35c19.299,0,35-15.701,35-35s-15.701-35-35-35  C236.867,80,221.167,95.701,221.167,115z M321.167,115c0,35.899-29.101,65-65,65c-35.897,0-65-29.101-65-65s29.103-65,65-65  C292.066,50,321.167,79.101,321.167,115z M451.167,397c0,35.898-29.102,65-65,65s-65-29.102-65-65s29.102-65,65-65  S451.167,361.102,451.167,397z M190.833,397c0,35.898-29.102,65-65,65s-65-29.102-65-65s29.102-65,65-65  S190.833,361.102,190.833,397z" />
  </g>
</svg>
